# xmcd CD database file
#
# Track frame offsets:
#	150
#	36948
#	53099
#	72089
#	99533
#	113396
#
# Disc length: 2070 seconds
#
# Revision: 0
# Processed by: cddbd v1.5.1PL2 Copyright (c) Steve Scherf et al.
# Submitted via: CDex 1.51
#
DISCID=44081406
DTITLE=John Lewis - Grand Encounter
DYEAR=1956
DGENRE=Jazz
TTITLE0=Love Me or Leave Me
TTITLE1=I Can't Get Started
TTITLE2=Easy Living
TTITLE3=Two Degrees East, Three Degrees West
TTITLE4=Skylark
TTITLE5=Almost Like Being in Love
EXTD=YEAR: 1956
EXTT0=
EXTT1=
EXTT2=
EXTT3=
EXTT4=
EXTT5=
PLAYORDER=
